<svg width="160" height="46" viewBox="0 0 160 46" fill="none" xmlns="http://www.w3.org/2000/svg">
<path d="M39.4502 44C39.3902 44 39.3422 43.982 39.3062 43.946C39.2702 43.91 39.2522 43.862 39.2522 43.802V39.491C39.2522 39.443 39.2702 39.404 39.3062 39.374C39.3482 39.338 39.3902 39.32 39.4322 39.32H39.8912C39.9872 39.32 40.0622 39.368 40.1162 39.464L41.6462 42.326L43.1852 39.464C43.2392 39.368 43.3142 39.32 43.4102 39.32H43.8602C43.9082 39.32 43.9502 39.338 43.9862 39.374C44.0222 39.404 44.0402 39.443 44.0402 39.491V43.802C44.0402 43.862 44.0222 43.91 43.9862 43.946C43.9502 43.982 43.9052 44 43.8512 44H43.4102C43.3502 44 43.3022 43.982 43.2662 43.946C43.2302 43.91 43.2122 43.862 43.2122 43.802V40.211L43.5272 40.247L42.0602 43.019C42.0302 43.079 41.9942 43.133 41.9522 43.181C41.9102 43.229 41.8472 43.253 41.7632 43.253H41.5292C41.4512 43.253 41.3912 43.229 41.3492 43.181C41.3072 43.133 41.2682 43.079 41.2322 43.019L39.8102 40.382L40.0892 40.355V43.802C40.0892 43.862 40.0712 43.91 40.0352 43.946C39.9992 43.982 39.9512 44 39.8912 44H39.4502ZM47.052 44.09C46.752 44.09 46.479 44.03 46.233 43.91C45.987 43.79 45.789 43.628 45.639 43.424C45.489 43.22 45.414 42.989 45.414 42.731C45.414 42.317 45.582 41.987 45.918 41.741C46.254 41.495 46.692 41.333 47.232 41.255L48.573 41.066V40.805C48.573 40.517 48.489 40.292 48.321 40.13C48.159 39.968 47.892 39.887 47.52 39.887C47.25 39.887 47.031 39.941 46.863 40.049C46.701 40.157 46.587 40.295 46.521 40.463C46.485 40.553 46.422 40.598 46.332 40.598H45.927C45.861 40.598 45.81 40.58 45.774 40.544C45.744 40.502 45.729 40.454 45.729 40.4C45.729 40.31 45.762 40.199 45.828 40.067C45.9 39.935 46.008 39.806 46.152 39.68C46.296 39.554 46.479 39.449 46.701 39.365C46.929 39.275 47.205 39.23 47.529 39.23C47.889 39.23 48.192 39.278 48.438 39.374C48.684 39.464 48.876 39.587 49.014 39.743C49.158 39.899 49.26 40.076 49.32 40.274C49.386 40.472 49.419 40.673 49.419 40.877V43.793C49.419 43.853 49.398 43.904 49.356 43.946C49.32 43.982 49.272 44 49.212 44H48.798C48.732 44 48.681 43.982 48.645 43.946C48.609 43.904 48.591 43.853 48.591 43.793V43.406C48.513 43.514 48.408 43.622 48.276 43.73C48.144 43.832 47.979 43.919 47.781 43.991C47.583 44.057 47.34 44.09 47.052 44.09ZM47.241 43.415C47.487 43.415 47.712 43.364 47.916 43.262C48.12 43.154 48.279 42.989 48.393 42.767C48.513 42.545 48.573 42.266 48.573 41.93V41.678L47.529 41.831C47.103 41.891 46.782 41.993 46.566 42.137C46.35 42.275 46.242 42.452 46.242 42.668C46.242 42.836 46.29 42.977 46.386 43.091C46.488 43.199 46.614 43.28 46.764 43.334C46.92 43.388 47.079 43.415 47.241 43.415ZM51.2798 44C51.2198 44 51.1688 43.982 51.1268 43.946C51.0908 43.904 51.0728 43.853 51.0728 43.793V39.527C51.0728 39.467 51.0908 39.419 51.1268 39.383C51.1688 39.341 51.2198 39.32 51.2798 39.32H53.9708C54.0308 39.32 54.0788 39.341 54.1148 39.383C54.1508 39.419 54.1688 39.467 54.1688 39.527V39.833C54.1688 39.893 54.1508 39.944 54.1148 39.986C54.0788 40.022 54.0308 40.04 53.9708 40.04H51.9098V43.793C51.9098 43.853 51.8918 43.904 51.8558 43.946C51.8198 43.982 51.7718 44 51.7118 44H51.2798ZM56.605 44.09C56.305 44.09 56.032 44.03 55.786 43.91C55.54 43.79 55.342 43.628 55.192 43.424C55.042 43.22 54.967 42.989 54.967 42.731C54.967 42.317 55.135 41.987 55.471 41.741C55.807 41.495 56.245 41.333 56.785 41.255L58.126 41.066V40.805C58.126 40.517 58.042 40.292 57.874 40.13C57.712 39.968 57.445 39.887 57.073 39.887C56.803 39.887 56.584 39.941 56.416 40.049C56.254 40.157 56.14 40.295 56.074 40.463C56.038 40.553 55.975 40.598 55.885 40.598H55.48C55.414 40.598 55.363 40.58 55.327 40.544C55.297 40.502 55.282 40.454 55.282 40.4C55.282 40.31 55.315 40.199 55.381 40.067C55.453 39.935 55.561 39.806 55.705 39.68C55.849 39.554 56.032 39.449 56.254 39.365C56.482 39.275 56.758 39.23 57.082 39.23C57.442 39.23 57.745 39.278 57.991 39.374C58.237 39.464 58.429 39.587 58.567 39.743C58.711 39.899 58.813 40.076 58.873 40.274C58.939 40.472 58.972 40.673 58.972 40.877V43.793C58.972 43.853 58.951 43.904 58.909 43.946C58.873 43.982 58.825 44 58.765 44H58.351C58.285 44 58.234 43.982 58.198 43.946C58.162 43.904 58.144 43.853 58.144 43.793V43.406C58.066 43.514 57.961 43.622 57.829 43.73C57.697 43.832 57.532 43.919 57.334 43.991C57.136 44.057 56.893 44.09 56.605 44.09ZM56.794 43.415C57.04 43.415 57.265 43.364 57.469 43.262C57.673 43.154 57.832 42.989 57.946 42.767C58.066 42.545 58.126 42.266 58.126 41.93V41.678L57.082 41.831C56.656 41.891 56.335 41.993 56.119 42.137C55.903 42.275 55.795 42.452 55.795 42.668C55.795 42.836 55.843 42.977 55.939 43.091C56.041 43.199 56.167 43.28 56.317 43.334C56.473 43.388 56.632 43.415 56.794 43.415ZM62.2548 44.09C61.9008 44.09 61.6008 44.048 61.3548 43.964C61.1148 43.874 60.9198 43.763 60.7698 43.631C60.6258 43.493 60.5208 43.352 60.4548 43.208C60.3888 43.058 60.3528 42.92 60.3468 42.794C60.3468 42.74 60.3648 42.698 60.4008 42.668C60.4368 42.632 60.4788 42.614 60.5268 42.614H60.9498C61.0038 42.614 61.0488 42.629 61.0848 42.659C61.1208 42.683 61.1478 42.728 61.1658 42.794C61.2378 43.022 61.3758 43.181 61.5798 43.271C61.7838 43.361 62.0328 43.406 62.3268 43.406C62.5188 43.406 62.6958 43.382 62.8578 43.334C63.0198 43.28 63.1458 43.196 63.2358 43.082C63.3318 42.968 63.3798 42.827 63.3798 42.659C63.3798 42.413 63.3078 42.227 63.1638 42.101C63.0258 41.975 62.8098 41.912 62.5158 41.912H62.0208C61.9608 41.912 61.9128 41.894 61.8768 41.858C61.8408 41.822 61.8228 41.774 61.8228 41.714V41.471C61.8228 41.417 61.8408 41.372 61.8768 41.336C61.9128 41.294 61.9608 41.273 62.0208 41.273H62.4618C62.7078 41.273 62.8968 41.225 63.0288 41.129C63.1608 41.033 63.2268 40.88 63.2268 40.67C63.2268 40.544 63.1968 40.424 63.1368 40.31C63.0768 40.196 62.9748 40.103 62.8308 40.031C62.6928 39.953 62.5008 39.914 62.2548 39.914C61.9068 39.914 61.6608 39.974 61.5168 40.094C61.3788 40.208 61.2798 40.379 61.2198 40.607C61.1958 40.673 61.1658 40.718 61.1298 40.742C61.0998 40.766 61.0548 40.778 60.9948 40.778H60.5898C60.5358 40.778 60.4908 40.763 60.4548 40.733C60.4188 40.703 60.4008 40.661 60.4008 40.607C60.4068 40.427 60.4458 40.256 60.5178 40.094C60.5958 39.932 60.7098 39.785 60.8598 39.653C61.0158 39.521 61.2078 39.419 61.4358 39.347C61.6698 39.269 61.9428 39.23 62.2548 39.23C62.7048 39.23 63.0588 39.299 63.3168 39.437C63.5808 39.575 63.7668 39.746 63.8748 39.95C63.9888 40.148 64.0458 40.346 64.0458 40.544C64.0458 40.778 64.0068 40.973 63.9288 41.129C63.8568 41.285 63.7128 41.417 63.4968 41.525C63.7668 41.627 63.9528 41.78 64.0548 41.984C64.1568 42.188 64.2108 42.425 64.2168 42.695C64.2228 43.007 64.1388 43.265 63.9648 43.469C63.7968 43.673 63.5658 43.829 63.2718 43.937C62.9778 44.039 62.6388 44.09 62.2548 44.09ZM65.7893 44C65.7353 44 65.6873 43.982 65.6453 43.946C65.6093 43.904 65.5913 43.859 65.5913 43.811V39.527C65.5913 39.467 65.6093 39.419 65.6453 39.383C65.6873 39.341 65.7383 39.32 65.7983 39.32H66.2303C66.2903 39.32 66.3383 39.341 66.3743 39.383C66.4103 39.419 66.4283 39.467 66.4283 39.527V43.343L66.1943 43.1L68.9213 39.455C68.9513 39.419 68.9843 39.389 69.0203 39.365C69.0563 39.335 69.1013 39.32 69.1553 39.32H69.5693C69.6173 39.32 69.6593 39.338 69.6953 39.374C69.7373 39.41 69.7583 39.452 69.7583 39.5V43.793C69.7583 43.853 69.7373 43.904 69.6953 43.946C69.6593 43.982 69.6113 44 69.5513 44H69.1283C69.0623 44 69.0113 43.982 68.9753 43.946C68.9393 43.904 68.9213 43.853 68.9213 43.793V40.202L69.1733 40.193L66.4283 43.865C66.4043 43.895 66.3743 43.925 66.3383 43.955C66.3023 43.985 66.2543 44 66.1943 44H65.7893ZM71.6426 44C71.5826 44 71.5316 43.982 71.4896 43.946C71.4536 43.904 71.4356 43.853 71.4356 43.793V39.527C71.4356 39.467 71.4536 39.419 71.4896 39.383C71.5316 39.341 71.5826 39.32 71.6426 39.32H72.0746C72.1346 39.32 72.1826 39.341 72.2186 39.383C72.2546 39.419 72.2726 39.467 72.2726 39.527V41.255H74.7296V39.527C74.7296 39.467 74.7476 39.419 74.7836 39.383C74.8256 39.341 74.8766 39.32 74.9366 39.32H75.3596C75.4196 39.32 75.4676 39.341 75.5036 39.383C75.5456 39.419 75.5666 39.467 75.5666 39.527V43.793C75.5666 43.853 75.5456 43.904 75.5036 43.946C75.4676 43.982 75.4196 44 75.3596 44H74.9366C74.8766 44 74.8256 43.982 74.7836 43.946C74.7476 43.904 74.7296 43.853 74.7296 43.793V41.975H72.2726V43.793C72.2726 43.853 72.2546 43.904 72.2186 43.946C72.1826 43.982 72.1346 44 72.0746 44H71.6426ZM81.7631 44.09C81.3071 44.09 80.9261 44.003 80.6201 43.829C80.3141 43.655 80.0801 43.415 79.9181 43.109C79.7561 42.797 79.6661 42.443 79.6481 42.047C79.6421 41.945 79.6391 41.816 79.6391 41.66C79.6391 41.498 79.6421 41.369 79.6481 41.273C79.6661 40.871 79.7561 40.517 79.9181 40.211C80.0861 39.905 80.3231 39.665 80.6291 39.491C80.9351 39.317 81.3131 39.23 81.7631 39.23C82.2131 39.23 82.5911 39.317 82.8971 39.491C83.2031 39.665 83.4371 39.905 83.5991 40.211C83.7671 40.517 83.8601 40.871 83.8781 41.273C83.8841 41.369 83.8871 41.498 83.8871 41.66C83.8871 41.816 83.8841 41.945 83.8781 42.047C83.8601 42.443 83.7701 42.797 83.6081 43.109C83.4461 43.415 83.2121 43.655 82.9061 43.829C82.6001 44.003 82.2191 44.09 81.7631 44.09ZM81.7631 43.397C82.1351 43.397 82.4321 43.28 82.6541 43.046C82.8761 42.806 82.9961 42.458 83.0141 42.002C83.0201 41.912 83.0231 41.798 83.0231 41.66C83.0231 41.522 83.0201 41.408 83.0141 41.318C82.9961 40.862 82.8761 40.517 82.6541 40.283C82.4321 40.043 82.1351 39.923 81.7631 39.923C81.3911 39.923 81.0911 40.043 80.8631 40.283C80.6411 40.517 80.5241 40.862 80.5121 41.318C80.5061 41.408 80.5031 41.522 80.5031 41.66C80.5031 41.798 80.5061 41.912 80.5121 42.002C80.5241 42.458 80.6411 42.806 80.8631 43.046C81.0911 43.28 81.3911 43.397 81.7631 43.397ZM87.723 45.71C87.663 45.71 87.612 45.689 87.57 45.647C87.534 45.611 87.516 45.563 87.516 45.503V44C86.988 44 86.553 43.913 86.211 43.739C85.875 43.565 85.623 43.325 85.455 43.019C85.293 42.713 85.2 42.365 85.176 41.975C85.164 41.765 85.164 41.555 85.176 41.345C85.2 40.949 85.296 40.601 85.464 40.301C85.632 39.995 85.884 39.755 86.22 39.581C86.562 39.407 86.994 39.32 87.516 39.32V37.817C87.516 37.757 87.534 37.709 87.57 37.673C87.612 37.631 87.663 37.61 87.723 37.61H88.1461C88.206 37.61 88.254 37.631 88.2901 37.673C88.3321 37.709 88.3531 37.757 88.3531 37.817V39.32C88.875 39.32 89.304 39.407 89.6401 39.581C89.9821 39.755 90.237 39.995 90.405 40.301C90.5791 40.601 90.6751 40.949 90.693 41.345C90.7051 41.555 90.7051 41.765 90.693 41.975C90.6751 42.365 90.5821 42.713 90.414 43.019C90.246 43.325 89.994 43.565 89.658 43.739C89.322 43.913 88.887 44 88.3531 44V45.503C88.3531 45.563 88.3321 45.611 88.2901 45.647C88.254 45.689 88.206 45.71 88.1461 45.71H87.723ZM87.516 43.307V40.013C87.03 40.013 86.664 40.13 86.418 40.364C86.172 40.598 86.037 40.946 86.013 41.408C86.007 41.498 86.004 41.585 86.004 41.669C86.004 41.747 86.007 41.828 86.013 41.912C86.043 42.374 86.178 42.722 86.418 42.956C86.664 43.19 87.03 43.307 87.516 43.307ZM88.3531 43.307C88.845 43.307 89.211 43.19 89.451 42.956C89.697 42.716 89.832 42.368 89.8561 41.912C89.862 41.828 89.865 41.747 89.865 41.669C89.865 41.585 89.862 41.498 89.8561 41.408C89.838 40.946 89.703 40.598 89.451 40.364C89.205 40.13 88.8391 40.013 88.3531 40.013V43.307ZM92.3832 44C92.3292 44 92.2812 43.982 92.2392 43.946C92.2032 43.904 92.1852 43.859 92.1852 43.811V39.527C92.1852 39.467 92.2032 39.419 92.2392 39.383C92.2812 39.341 92.3322 39.32 92.3922 39.32H92.8242C92.8842 39.32 92.9322 39.341 92.9682 39.383C93.0042 39.419 93.0222 39.467 93.0222 39.527V43.343L92.7882 43.1L95.5152 39.455C95.5452 39.419 95.5782 39.389 95.6142 39.365C95.6502 39.335 95.6952 39.32 95.7492 39.32H96.1632C96.2112 39.32 96.2532 39.338 96.2892 39.374C96.3312 39.41 96.3522 39.452 96.3522 39.5V43.793C96.3522 43.853 96.3312 43.904 96.2892 43.946C96.2532 43.982 96.2052 44 96.1452 44H95.7222C95.6562 44 95.6052 43.982 95.5692 43.946C95.5332 43.904 95.5152 43.853 95.5152 43.793V40.202L95.7672 40.193L93.0222 43.865C92.9982 43.895 92.9682 43.925 92.9322 43.955C92.8962 43.985 92.8482 44 92.7882 44H92.3832ZM99.9196 44.09C99.4936 44.09 99.1246 44.009 98.8126 43.847C98.5066 43.679 98.2696 43.442 98.1016 43.136C97.9336 42.824 97.8436 42.452 97.8316 42.02C97.8256 41.93 97.8226 41.81 97.8226 41.66C97.8226 41.51 97.8256 41.39 97.8316 41.3C97.8436 40.868 97.9336 40.499 98.1016 40.193C98.2696 39.881 98.5066 39.644 98.8126 39.482C99.1246 39.314 99.4936 39.23 99.9196 39.23C100.268 39.23 100.565 39.278 100.811 39.374C101.063 39.47 101.27 39.593 101.432 39.743C101.594 39.893 101.714 40.055 101.792 40.229C101.876 40.403 101.921 40.568 101.927 40.724C101.933 40.784 101.915 40.832 101.873 40.868C101.831 40.904 101.78 40.922 101.72 40.922H101.288C101.228 40.922 101.183 40.91 101.153 40.886C101.123 40.856 101.093 40.808 101.063 40.742C100.955 40.448 100.808 40.241 100.622 40.121C100.436 40.001 100.205 39.941 99.9286 39.941C99.5686 39.941 99.2746 40.052 99.0466 40.274C98.8246 40.496 98.7046 40.853 98.6866 41.345C98.6806 41.561 98.6806 41.771 98.6866 41.975C98.7046 42.473 98.8246 42.833 99.0466 43.055C99.2746 43.271 99.5686 43.379 99.9286 43.379C100.205 43.379 100.436 43.319 100.622 43.199C100.808 43.079 100.955 42.872 101.063 42.578C101.093 42.512 101.123 42.467 101.153 42.443C101.183 42.413 101.228 42.398 101.288 42.398H101.72C101.78 42.398 101.831 42.416 101.873 42.452C101.915 42.488 101.933 42.536 101.927 42.596C101.921 42.722 101.894 42.851 101.846 42.983C101.798 43.115 101.72 43.25 101.612 43.388C101.51 43.52 101.381 43.64 101.225 43.748C101.069 43.85 100.88 43.934 100.658 44C100.442 44.06 100.196 44.09 99.9196 44.09ZM103.562 44C103.502 44 103.451 43.982 103.409 43.946C103.373 43.904 103.355 43.853 103.355 43.793V39.527C103.355 39.467 103.373 39.419 103.409 39.383C103.451 39.341 103.502 39.32 103.562 39.32H103.994C104.054 39.32 104.102 39.341 104.138 39.383C104.174 39.419 104.192 39.467 104.192 39.527V41.255H106.649V39.527C106.649 39.467 106.667 39.419 106.703 39.383C106.745 39.341 106.796 39.32 106.856 39.32H107.279C107.339 39.32 107.387 39.341 107.423 39.383C107.465 39.419 107.486 39.467 107.486 39.527V43.793C107.486 43.853 107.465 43.904 107.423 43.946C107.387 43.982 107.339 44 107.279 44H106.856C106.796 44 106.745 43.982 106.703 43.946C106.667 43.904 106.649 43.853 106.649 43.793V41.975H104.192V43.793C104.192 43.853 104.174 43.904 104.138 43.946C104.102 43.982 104.054 44 103.994 44H103.562ZM111.117 44.09C110.661 44.09 110.28 44.003 109.974 43.829C109.668 43.655 109.434 43.415 109.272 43.109C109.11 42.797 109.02 42.443 109.002 42.047C108.996 41.945 108.993 41.816 108.993 41.66C108.993 41.498 108.996 41.369 109.002 41.273C109.02 40.871 109.11 40.517 109.272 40.211C109.44 39.905 109.677 39.665 109.983 39.491C110.289 39.317 110.667 39.23 111.117 39.23C111.567 39.23 111.945 39.317 112.251 39.491C112.557 39.665 112.791 39.905 112.953 40.211C113.121 40.517 113.214 40.871 113.232 41.273C113.238 41.369 113.241 41.498 113.241 41.66C113.241 41.816 113.238 41.945 113.232 42.047C113.214 42.443 113.124 42.797 112.962 43.109C112.8 43.415 112.566 43.655 112.26 43.829C111.954 44.003 111.573 44.09 111.117 44.09ZM111.117 43.397C111.489 43.397 111.786 43.28 112.008 43.046C112.23 42.806 112.35 42.458 112.368 42.002C112.374 41.912 112.377 41.798 112.377 41.66C112.377 41.522 112.374 41.408 112.368 41.318C112.35 40.862 112.23 40.517 112.008 40.283C111.786 40.043 111.489 39.923 111.117 39.923C110.745 39.923 110.445 40.043 110.217 40.283C109.995 40.517 109.878 40.862 109.866 41.318C109.86 41.408 109.857 41.522 109.857 41.66C109.857 41.798 109.86 41.912 109.866 42.002C109.878 42.458 109.995 42.806 110.217 43.046C110.445 43.28 110.745 43.397 111.117 43.397ZM114.926 44C114.872 44 114.824 43.982 114.782 43.946C114.746 43.904 114.728 43.859 114.728 43.811V39.527C114.728 39.467 114.746 39.419 114.782 39.383C114.824 39.341 114.875 39.32 114.935 39.32H115.367C115.427 39.32 115.475 39.341 115.511 39.383C115.547 39.419 115.565 39.467 115.565 39.527V43.343L115.331 43.1L118.058 39.455C118.088 39.419 118.121 39.389 118.157 39.365C118.193 39.335 118.238 39.32 118.292 39.32H118.706C118.754 39.32 118.796 39.338 118.832 39.374C118.874 39.41 118.895 39.452 118.895 39.5V43.793C118.895 43.853 118.874 43.904 118.832 43.946C118.796 43.982 118.748 44 118.688 44H118.265C118.199 44 118.148 43.982 118.112 43.946C118.076 43.904 118.058 43.853 118.058 43.793V40.202L118.31 40.193L115.565 43.865C115.541 43.895 115.511 43.925 115.475 43.955C115.439 43.985 115.391 44 115.331 44H114.926ZM116.834 38.699C116.486 38.699 116.213 38.645 116.015 38.537C115.817 38.429 115.679 38.291 115.601 38.123C115.523 37.949 115.484 37.769 115.484 37.583C115.484 37.535 115.496 37.496 115.52 37.466C115.55 37.43 115.595 37.412 115.655 37.412H115.961C116.015 37.412 116.057 37.43 116.087 37.466C116.117 37.496 116.132 37.535 116.132 37.583C116.132 37.721 116.177 37.85 116.267 37.97C116.363 38.084 116.552 38.141 116.834 38.141C117.122 38.141 117.311 38.084 117.401 37.97C117.491 37.85 117.536 37.721 117.536 37.583C117.536 37.535 117.551 37.496 117.581 37.466C117.611 37.43 117.653 37.412 117.707 37.412H118.022C118.076 37.412 118.118 37.43 118.148 37.466C118.178 37.496 118.193 37.535 118.193 37.583C118.193 37.769 118.151 37.949 118.067 38.123C117.989 38.291 117.851 38.429 117.653 38.537C117.455 38.645 117.182 38.699 116.834 38.699ZM123.336 44C123.276 44 123.228 43.982 123.192 43.946C123.156 43.91 123.138 43.862 123.138 43.802V39.491C123.138 39.443 123.156 39.404 123.192 39.374C123.234 39.338 123.276 39.32 123.318 39.32H123.777C123.873 39.32 123.948 39.368 124.002 39.464L125.532 42.326L127.071 39.464C127.125 39.368 127.2 39.32 127.296 39.32H127.746C127.794 39.32 127.836 39.338 127.872 39.374C127.908 39.404 127.926 39.443 127.926 39.491V43.802C127.926 43.862 127.908 43.91 127.872 43.946C127.836 43.982 127.791 44 127.737 44H127.296C127.236 44 127.188 43.982 127.152 43.946C127.116 43.91 127.098 43.862 127.098 43.802V40.211L127.413 40.247L125.946 43.019C125.916 43.079 125.88 43.133 125.838 43.181C125.796 43.229 125.733 43.253 125.649 43.253H125.415C125.337 43.253 125.277 43.229 125.235 43.181C125.193 43.133 125.154 43.079 125.118 43.019L123.696 40.382L123.975 40.355V43.802C123.975 43.862 123.957 43.91 123.921 43.946C123.885 43.982 123.837 44 123.777 44H123.336ZM131.496 44.09C130.878 44.09 130.386 43.901 130.02 43.523C129.654 43.139 129.453 42.617 129.417 41.957C129.411 41.879 129.408 41.78 129.408 41.66C129.408 41.534 129.411 41.432 129.417 41.354C129.441 40.928 129.54 40.556 129.714 40.238C129.888 39.914 130.125 39.665 130.425 39.491C130.731 39.317 131.088 39.23 131.496 39.23C131.952 39.23 132.333 39.326 132.639 39.518C132.951 39.71 133.188 39.983 133.35 40.337C133.512 40.691 133.593 41.105 133.593 41.579V41.732C133.593 41.798 133.572 41.849 133.53 41.885C133.494 41.921 133.446 41.939 133.386 41.939H130.272C130.272 41.945 130.272 41.957 130.272 41.975C130.272 41.993 130.272 42.008 130.272 42.02C130.284 42.266 130.338 42.497 130.434 42.713C130.53 42.923 130.668 43.094 130.848 43.226C131.028 43.358 131.244 43.424 131.496 43.424C131.712 43.424 131.892 43.391 132.036 43.325C132.18 43.259 132.297 43.187 132.387 43.109C132.477 43.025 132.537 42.962 132.567 42.92C132.621 42.842 132.663 42.797 132.693 42.785C132.723 42.767 132.771 42.758 132.837 42.758H133.269C133.329 42.758 133.377 42.776 133.413 42.812C133.455 42.842 133.473 42.887 133.467 42.947C133.461 43.037 133.413 43.148 133.323 43.28C133.233 43.406 133.104 43.532 132.936 43.658C132.768 43.784 132.564 43.889 132.324 43.973C132.084 44.051 131.808 44.09 131.496 44.09ZM130.272 41.318H132.738V41.291C132.738 41.021 132.687 40.781 132.585 40.571C132.489 40.361 132.348 40.196 132.162 40.076C131.976 39.95 131.754 39.887 131.496 39.887C131.238 39.887 131.016 39.95 130.83 40.076C130.65 40.196 130.512 40.361 130.416 40.571C130.32 40.781 130.272 41.021 130.272 41.291V41.318ZM137.009 44.09C136.547 44.09 136.16 44.003 135.848 43.829C135.542 43.649 135.308 43.397 135.146 43.073C134.99 42.743 134.906 42.362 134.894 41.93C134.888 41.75 134.885 41.57 134.885 41.39C134.885 41.21 134.888 41.03 134.894 40.85C134.894 40.304 134.939 39.851 135.029 39.491C135.119 39.131 135.254 38.837 135.434 38.609C135.62 38.375 135.854 38.183 136.136 38.033C136.418 37.883 136.751 37.754 137.135 37.646C137.519 37.532 137.957 37.412 138.449 37.286C138.503 37.274 138.554 37.283 138.602 37.313C138.656 37.343 138.686 37.385 138.692 37.439L138.764 37.808C138.776 37.862 138.767 37.91 138.737 37.952C138.713 37.994 138.674 38.021 138.62 38.033C138.17 38.147 137.777 38.246 137.441 38.33C137.105 38.414 136.823 38.513 136.595 38.627C136.367 38.735 136.184 38.876 136.046 39.05C135.908 39.224 135.812 39.455 135.758 39.743C135.71 40.031 135.695 40.4 135.713 40.85L135.515 40.769C135.545 40.547 135.638 40.346 135.794 40.166C135.956 39.98 136.157 39.83 136.397 39.716C136.637 39.602 136.892 39.545 137.162 39.545C137.576 39.545 137.924 39.632 138.206 39.806C138.494 39.98 138.713 40.217 138.863 40.517C139.019 40.817 139.106 41.162 139.124 41.552C139.136 41.756 139.136 41.933 139.124 42.083C139.106 42.473 139.016 42.821 138.854 43.127C138.692 43.427 138.458 43.664 138.152 43.838C137.846 44.006 137.465 44.09 137.009 44.09ZM137.009 43.424C137.387 43.424 137.687 43.307 137.909 43.073C138.131 42.839 138.248 42.497 138.26 42.047C138.266 41.987 138.269 41.918 138.269 41.84C138.269 41.762 138.266 41.681 138.26 41.597C138.248 41.141 138.131 40.796 137.909 40.562C137.693 40.328 137.42 40.211 137.09 40.211C136.712 40.211 136.4 40.328 136.154 40.562C135.908 40.796 135.776 41.141 135.758 41.597C135.752 41.681 135.749 41.762 135.749 41.84C135.749 41.918 135.752 41.987 135.758 42.047C135.776 42.497 135.896 42.839 136.118 43.073C136.34 43.307 136.637 43.424 137.009 43.424ZM142.482 44.09C141.864 44.09 141.372 43.901 141.006 43.523C140.64 43.139 140.439 42.617 140.403 41.957C140.397 41.879 140.394 41.78 140.394 41.66C140.394 41.534 140.397 41.432 140.403 41.354C140.427 40.928 140.526 40.556 140.7 40.238C140.874 39.914 141.111 39.665 141.411 39.491C141.717 39.317 142.074 39.23 142.482 39.23C142.938 39.23 143.319 39.326 143.625 39.518C143.937 39.71 144.174 39.983 144.336 40.337C144.498 40.691 144.579 41.105 144.579 41.579V41.732C144.579 41.798 144.558 41.849 144.516 41.885C144.48 41.921 144.432 41.939 144.372 41.939H141.258C141.258 41.945 141.258 41.957 141.258 41.975C141.258 41.993 141.258 42.008 141.258 42.02C141.27 42.266 141.324 42.497 141.42 42.713C141.516 42.923 141.654 43.094 141.834 43.226C142.014 43.358 142.23 43.424 142.482 43.424C142.698 43.424 142.878 43.391 143.022 43.325C143.166 43.259 143.283 43.187 143.373 43.109C143.463 43.025 143.523 42.962 143.553 42.92C143.607 42.842 143.649 42.797 143.679 42.785C143.709 42.767 143.757 42.758 143.823 42.758H144.255C144.315 42.758 144.363 42.776 144.399 42.812C144.441 42.842 144.459 42.887 144.453 42.947C144.447 43.037 144.399 43.148 144.309 43.28C144.219 43.406 144.09 43.532 143.922 43.658C143.754 43.784 143.55 43.889 143.31 43.973C143.07 44.051 142.794 44.09 142.482 44.09ZM141.258 41.318H143.724V41.291C143.724 41.021 143.673 40.781 143.571 40.571C143.475 40.361 143.334 40.196 143.148 40.076C142.962 39.95 142.74 39.887 142.482 39.887C142.224 39.887 142.002 39.95 141.816 40.076C141.636 40.196 141.498 40.361 141.402 40.571C141.306 40.781 141.258 41.021 141.258 41.291V41.318ZM145.79 44C145.73 44 145.679 43.979 145.637 43.937C145.595 43.895 145.574 43.844 145.574 43.784V43.451C145.574 43.325 145.637 43.259 145.763 43.253C145.949 43.247 146.105 43.16 146.231 42.992C146.357 42.818 146.453 42.545 146.519 42.173C146.585 41.795 146.618 41.297 146.618 40.679V39.527C146.618 39.467 146.636 39.419 146.672 39.383C146.714 39.341 146.765 39.32 146.825 39.32H149.687C149.747 39.32 149.795 39.341 149.831 39.383C149.873 39.419 149.894 39.467 149.894 39.527V43.793C149.894 43.853 149.873 43.904 149.831 43.946C149.795 43.982 149.747 44 149.687 44H149.255C149.195 44 149.147 43.982 149.111 43.946C149.075 43.904 149.057 43.853 149.057 43.793V40.04H147.437V40.778C147.437 41.354 147.404 41.849 147.338 42.263C147.272 42.671 147.17 43.004 147.032 43.262C146.9 43.514 146.729 43.7 146.519 43.82C146.315 43.94 146.072 44 145.79 44ZM151.793 44C151.739 44 151.691 43.982 151.649 43.946C151.613 43.904 151.595 43.859 151.595 43.811V39.527C151.595 39.467 151.613 39.419 151.649 39.383C151.691 39.341 151.742 39.32 151.802 39.32H152.234C152.294 39.32 152.342 39.341 152.378 39.383C152.414 39.419 152.432 39.467 152.432 39.527V43.343L152.198 43.1L154.925 39.455C154.955 39.419 154.988 39.389 155.024 39.365C155.06 39.335 155.105 39.32 155.159 39.32H155.573C155.621 39.32 155.663 39.338 155.699 39.374C155.741 39.41 155.762 39.452 155.762 39.5V43.793C155.762 43.853 155.741 43.904 155.699 43.946C155.663 43.982 155.615 44 155.555 44H155.132C155.066 44 155.015 43.982 154.979 43.946C154.943 43.904 154.925 43.853 154.925 43.793V40.202L155.177 40.193L152.432 43.865C152.408 43.895 152.378 43.925 152.342 43.955C152.306 43.985 152.258 44 152.198 44H151.793Z" fill="white"/>
<path d="M5.60109 35C5.35442 35 5.13242 34.9137 4.93509 34.741C4.76242 34.5683 4.67609 34.3463 4.67609 34.075V10.025C4.67609 9.75367 4.76242 9.53167 4.93509 9.359C5.13242 9.18633 5.35442 9.1 5.60109 9.1H9.59709C9.99176 9.1 10.2878 9.211 10.4851 9.433C10.7071 9.63033 10.8428 9.79067 10.8921 9.914L17.4041 21.606L23.9161 9.914C23.9901 9.79067 24.1134 9.63033 24.2861 9.433C24.4834 9.211 24.7918 9.1 25.2111 9.1H29.1701C29.4414 9.1 29.6634 9.18633 29.8361 9.359C30.0334 9.53167 30.1321 9.75367 30.1321 10.025V34.075C30.1321 34.3463 30.0334 34.5683 29.8361 34.741C29.6634 34.9137 29.4414 35 29.1701 35H24.7671C24.4958 35 24.2614 34.9137 24.0641 34.741C23.8914 34.5683 23.8051 34.3463 23.8051 34.075V20.2L19.6241 27.933C19.5254 28.155 19.3774 28.3523 19.1801 28.525C18.9828 28.6977 18.7114 28.784 18.3661 28.784H16.4421C16.0968 28.784 15.8254 28.6977 15.6281 28.525C15.4308 28.3523 15.2704 28.155 15.1471 27.933L10.9661 20.2V34.075C10.9661 34.3463 10.8798 34.5683 10.7071 34.741C10.5344 34.9137 10.3124 35 10.0411 35H5.60109ZM43.0136 35.37C40.1029 35.37 37.7842 34.5807 36.0576 33.002C34.3309 31.4233 33.4306 29.08 33.3566 25.972C33.3566 25.7993 33.3566 25.5773 33.3566 25.306C33.3566 25.0347 33.3566 24.825 33.3566 24.677C33.4306 22.7283 33.8622 21.0633 34.6516 19.682C35.4656 18.276 36.5756 17.2153 37.9816 16.5C39.4122 15.76 41.0772 15.39 42.9766 15.39C45.1472 15.39 46.9356 15.8217 48.3416 16.685C49.7723 17.5483 50.8453 18.72 51.5606 20.2C52.2759 21.68 52.6336 23.3697 52.6336 25.269V26.157C52.6336 26.4283 52.5349 26.6503 52.3376 26.823C52.1649 26.9957 51.9553 27.082 51.7086 27.082H39.8686C39.8686 27.1067 39.8686 27.1437 39.8686 27.193C39.8686 27.2423 39.8686 27.2917 39.8686 27.341C39.8932 28.0563 40.0166 28.71 40.2386 29.302C40.4606 29.894 40.8059 30.3627 41.2746 30.708C41.7432 31.0533 42.3106 31.226 42.9766 31.226C43.4699 31.226 43.8769 31.152 44.1976 31.004C44.5429 30.8313 44.8266 30.6463 45.0486 30.449C45.2706 30.227 45.4432 30.042 45.5666 29.894C45.7886 29.6473 45.9612 29.4993 46.0846 29.45C46.2326 29.376 46.4546 29.339 46.7506 29.339H51.3386C51.5853 29.339 51.7826 29.413 51.9306 29.561C52.1033 29.6843 52.1773 29.8693 52.1526 30.116C52.1279 30.5353 51.9183 31.041 51.5236 31.633C51.1289 32.225 50.5492 32.817 49.7846 33.409C49.0446 33.9763 48.1072 34.445 46.9726 34.815C45.8379 35.185 44.5182 35.37 43.0136 35.37ZM39.8686 23.419H46.1216V23.345C46.1216 22.5557 45.9982 21.865 45.7516 21.273C45.5296 20.681 45.1719 20.2247 44.6786 19.904C44.2099 19.5833 43.6426 19.423 42.9766 19.423C42.3106 19.423 41.7432 19.5833 41.2746 19.904C40.8306 20.2247 40.4852 20.681 40.2386 21.273C39.9919 21.865 39.8686 22.5557 39.8686 23.345V23.419ZM67.1283 35.37C65.747 35.37 64.5877 35.1357 63.6503 34.667C62.7377 34.1983 61.9853 33.6063 61.3933 32.891V34.075C61.3933 34.3463 61.2947 34.5683 61.0973 34.741C60.9247 34.9137 60.715 35 60.4683 35H56.2873C56.016 35 55.794 34.9137 55.6213 34.741C55.4487 34.5683 55.3623 34.3463 55.3623 34.075V9.655C55.3623 9.38366 55.4487 9.16167 55.6213 8.989C55.794 8.81633 56.016 8.73 56.2873 8.73H60.8013C61.0727 8.73 61.2947 8.81633 61.4673 8.989C61.64 9.16167 61.7263 9.38366 61.7263 9.655V17.573C62.3183 16.9317 63.0583 16.4137 63.9463 16.019C64.859 15.5997 65.9197 15.39 67.1283 15.39C68.3617 15.39 69.447 15.5997 70.3843 16.019C71.3463 16.4137 72.1603 16.9933 72.8263 17.758C73.4923 18.5227 74.0103 19.4353 74.3803 20.496C74.7503 21.5567 74.96 22.753 75.0093 24.085C75.034 24.5537 75.0463 24.9853 75.0463 25.38C75.0463 25.75 75.034 26.1817 75.0093 26.675C74.96 28.0563 74.738 29.2897 74.3433 30.375C73.9733 31.4357 73.4553 32.3483 72.7893 33.113C72.1233 33.853 71.3217 34.4203 70.3843 34.815C69.447 35.185 68.3617 35.37 67.1283 35.37ZM65.1303 30.412C65.969 30.412 66.6227 30.2393 67.0913 29.894C67.56 29.5487 67.893 29.08 68.0903 28.488C68.3123 27.896 68.448 27.2423 68.4973 26.527C68.5467 25.7623 68.5467 24.9977 68.4973 24.233C68.448 23.5177 68.3123 22.864 68.0903 22.272C67.893 21.68 67.56 21.2113 67.0913 20.866C66.6227 20.5207 65.969 20.348 65.1303 20.348C64.3657 20.348 63.7367 20.5207 63.2433 20.866C62.75 21.1867 62.38 21.6183 62.1333 22.161C61.8867 22.679 61.751 23.2463 61.7263 23.863C61.7017 24.3317 61.6893 24.788 61.6893 25.232C61.6893 25.676 61.7017 26.1447 61.7263 26.638C61.751 27.304 61.8743 27.9207 62.0963 28.488C62.3183 29.0553 62.676 29.524 63.1693 29.894C63.6627 30.2393 64.3163 30.412 65.1303 30.412ZM86.8441 35.37C83.9335 35.37 81.6148 34.5807 79.8881 33.002C78.1615 31.4233 77.2611 29.08 77.1871 25.972C77.1871 25.7993 77.1871 25.5773 77.1871 25.306C77.1871 25.0347 77.1871 24.825 77.1871 24.677C77.2611 22.7283 77.6928 21.0633 78.4821 19.682C79.2961 18.276 80.4061 17.2153 81.8121 16.5C83.2428 15.76 84.9078 15.39 86.8071 15.39C88.9778 15.39 90.7661 15.8217 92.1721 16.685C93.6028 17.5483 94.6758 18.72 95.3911 20.2C96.1065 21.68 96.4641 23.3697 96.4641 25.269V26.157C96.4641 26.4283 96.3655 26.6503 96.1681 26.823C95.9955 26.9957 95.7858 27.082 95.5391 27.082H83.6991C83.6991 27.1067 83.6991 27.1437 83.6991 27.193C83.6991 27.2423 83.6991 27.2917 83.6991 27.341C83.7238 28.0563 83.8471 28.71 84.0691 29.302C84.2911 29.894 84.6365 30.3627 85.1051 30.708C85.5738 31.0533 86.1411 31.226 86.8071 31.226C87.3005 31.226 87.7075 31.152 88.0281 31.004C88.3735 30.8313 88.6571 30.6463 88.8791 30.449C89.1011 30.227 89.2738 30.042 89.3971 29.894C89.6191 29.6473 89.7918 29.4993 89.9151 29.45C90.0631 29.376 90.2851 29.339 90.5811 29.339H95.1691C95.4158 29.339 95.6131 29.413 95.7611 29.561C95.9338 29.6843 96.0078 29.8693 95.9831 30.116C95.9585 30.5353 95.7488 31.041 95.3541 31.633C94.9595 32.225 94.3798 32.817 93.6151 33.409C92.8751 33.9763 91.9378 34.445 90.8031 34.815C89.6685 35.185 88.3488 35.37 86.8441 35.37ZM83.6991 23.419H89.9521V23.345C89.9521 22.5557 89.8288 21.865 89.5821 21.273C89.3601 20.681 89.0025 20.2247 88.5091 19.904C88.0405 19.5833 87.4731 19.423 86.8071 19.423C86.1411 19.423 85.5738 19.5833 85.1051 19.904C84.6611 20.2247 84.3158 20.681 84.0691 21.273C83.8225 21.865 83.6991 22.5557 83.6991 23.345V23.419ZM100.118 35C99.8465 35 99.6245 34.9137 99.4519 34.741C99.2792 34.5683 99.1929 34.3463 99.1929 34.075V9.655C99.1929 9.38366 99.2792 9.16167 99.4519 8.989C99.6245 8.81633 99.8465 8.73 100.118 8.73H104.484C104.755 8.73 104.977 8.81633 105.15 8.989C105.323 9.16167 105.409 9.38366 105.409 9.655V34.075C105.409 34.3463 105.323 34.5683 105.15 34.741C104.977 34.9137 104.755 35 104.484 35H100.118Z" fill="white"/>
<path d="M109.78 35C109.508 35 109.286 34.9137 109.114 34.741C108.941 34.5683 108.855 34.3463 108.855 34.075V29.376C108.855 29.1293 108.941 28.9197 109.114 28.747C109.286 28.5497 109.508 28.451 109.78 28.451H114.442C114.713 28.451 114.935 28.5497 115.108 28.747C115.305 28.9197 115.404 29.1293 115.404 29.376V34.075C115.404 34.3463 115.305 34.5683 115.108 34.741C114.935 34.9137 114.713 35 114.442 35H109.78ZM119.739 35C119.468 35 119.246 34.9137 119.073 34.741C118.901 34.5683 118.814 34.3463 118.814 34.075V9.655C118.814 9.38366 118.901 9.16167 119.073 8.989C119.246 8.81633 119.468 8.73 119.739 8.73H124.031C124.278 8.73 124.488 8.81633 124.66 8.989C124.858 9.16167 124.956 9.38366 124.956 9.655V22.05L130.099 16.389C130.247 16.2163 130.408 16.0683 130.58 15.945C130.753 15.8217 131 15.76 131.32 15.76H136.278C136.5 15.76 136.685 15.8463 136.833 16.019C137.006 16.167 137.092 16.352 137.092 16.574C137.092 16.6727 137.068 16.7837 137.018 16.907C136.969 17.0303 136.895 17.129 136.796 17.203L130.136 24.381L137.721 33.594C137.919 33.7913 138.017 33.9887 138.017 34.186C138.017 34.408 137.931 34.6053 137.758 34.778C137.61 34.926 137.413 35 137.166 35H132.097C131.727 35 131.456 34.9383 131.283 34.815C131.111 34.667 130.95 34.519 130.802 34.371L124.956 27.341V34.075C124.956 34.3463 124.858 34.5683 124.66 34.741C124.488 34.9137 124.278 35 124.031 35H119.739ZM139.83 35C139.583 35 139.361 34.9137 139.164 34.741C138.991 34.5683 138.905 34.3463 138.905 34.075V31.189C138.905 30.9177 138.954 30.6833 139.053 30.486C139.176 30.2887 139.324 30.1037 139.497 29.931L148.155 20.533H140.163C139.892 20.533 139.657 20.4467 139.46 20.274C139.287 20.1013 139.201 19.8793 139.201 19.608V16.685C139.201 16.4137 139.287 16.1917 139.46 16.019C139.657 15.8463 139.892 15.76 140.163 15.76H155.037C155.284 15.76 155.493 15.8463 155.666 16.019C155.863 16.1917 155.962 16.4137 155.962 16.685V19.83C155.962 20.052 155.913 20.2493 155.814 20.422C155.715 20.5947 155.592 20.7673 155.444 20.94L147.008 30.227H155.777C156.048 30.227 156.27 30.3133 156.443 30.486C156.616 30.6587 156.702 30.8807 156.702 31.152V34.075C156.702 34.3463 156.616 34.5683 156.443 34.741C156.27 34.9137 156.048 35 155.777 35H139.83Z" fill="#10C6FF"/>
</svg>
