<svg width="160" height="45" viewBox="0 0 160 45" fill="none" xmlns="http://www.w3.org/2000/svg">
<path d="M45.086 43V38.824H45.478L47.454 42.128H47.278L49.262 38.824H49.63V43H49.262V39.304L49.342 39.336L47.446 42.464H47.262L45.358 39.312L45.454 39.296V43H45.086ZM54.2875 43V42.048L54.2715 41.904V40.336C54.2715 39.9467 54.1648 39.6507 53.9515 39.448C53.7435 39.2453 53.4368 39.144 53.0315 39.144C52.7435 39.144 52.4741 39.1947 52.2235 39.296C51.9781 39.392 51.7675 39.5173 51.5915 39.672L51.3915 39.384C51.5995 39.1973 51.8501 39.0533 52.1435 38.952C52.4368 38.8453 52.7435 38.792 53.0635 38.792C53.5808 38.792 53.9781 38.9227 54.2555 39.184C54.5328 39.4453 54.6715 39.8347 54.6715 40.352V43H54.2875ZM52.7835 43.032C52.4741 43.032 52.2048 42.984 51.9755 42.888C51.7515 42.7867 51.5781 42.6453 51.4555 42.464C51.3381 42.2827 51.2795 42.0747 51.2795 41.84C51.2795 41.6267 51.3275 41.4347 51.4235 41.264C51.5248 41.088 51.6901 40.9467 51.9195 40.84C52.1488 40.728 52.4555 40.672 52.8395 40.672H54.3755V40.984H52.8475C52.4155 40.984 52.1115 41.064 51.9355 41.224C51.7648 41.384 51.6795 41.584 51.6795 41.824C51.6795 42.0907 51.7808 42.304 51.9835 42.464C52.1861 42.624 52.4715 42.704 52.8395 42.704C53.1915 42.704 53.4875 42.624 53.7275 42.464C53.9728 42.304 54.1541 42.072 54.2715 41.768L54.3835 42.04C54.2715 42.344 54.0795 42.5867 53.8075 42.768C53.5408 42.944 53.1995 43.032 52.7835 43.032ZM56.6167 43V38.824H59.4727V39.184H56.9047L57.0167 39.072V43H56.6167ZM63.2556 43V42.048L63.2396 41.904V40.336C63.2396 39.9467 63.1329 39.6507 62.9196 39.448C62.7116 39.2453 62.4049 39.144 61.9996 39.144C61.7116 39.144 61.4423 39.1947 61.1916 39.296C60.9463 39.392 60.7356 39.5173 60.5596 39.672L60.3596 39.384C60.5676 39.1973 60.8183 39.0533 61.1116 38.952C61.4049 38.8453 61.7116 38.792 62.0316 38.792C62.5489 38.792 62.9463 38.9227 63.2236 39.184C63.5009 39.4453 63.6396 39.8347 63.6396 40.352V43H63.2556ZM61.7516 43.032C61.4423 43.032 61.1729 42.984 60.9436 42.888C60.7196 42.7867 60.5463 42.6453 60.4236 42.464C60.3063 42.2827 60.2476 42.0747 60.2476 41.84C60.2476 41.6267 60.2956 41.4347 60.3916 41.264C60.4929 41.088 60.6583 40.9467 60.8876 40.84C61.1169 40.728 61.4236 40.672 61.8076 40.672H63.3436V40.984H61.8156C61.3836 40.984 61.0796 41.064 60.9036 41.224C60.7329 41.384 60.6476 41.584 60.6476 41.824C60.6476 42.0907 60.7489 42.304 60.9516 42.464C61.1543 42.624 61.4396 42.704 61.8076 42.704C62.1596 42.704 62.4556 42.624 62.6956 42.464C62.9409 42.304 63.1223 42.072 63.2396 41.768L63.3516 42.04C63.2396 42.344 63.0476 42.5867 62.7756 42.768C62.5089 42.944 62.1676 43.032 61.7516 43.032ZM66.5152 43.04C66.2272 43.04 65.9366 42.9947 65.6432 42.904C65.3499 42.8133 65.0912 42.6747 64.8672 42.488L65.0192 42.192C65.2219 42.3627 65.4566 42.4907 65.7232 42.576C65.9899 42.656 66.2566 42.6933 66.5232 42.688C66.7952 42.688 67.0326 42.648 67.2352 42.568C67.4432 42.488 67.6032 42.3787 67.7152 42.24C67.8272 42.1013 67.8832 41.9467 67.8832 41.776C67.8832 41.5253 67.7712 41.3307 67.5472 41.192C67.3232 41.0533 67.0166 40.984 66.6272 40.984H65.9552V40.68H66.6112C66.8352 40.68 67.0326 40.6507 67.2032 40.592C67.3792 40.5333 67.5152 40.448 67.6112 40.336C67.7126 40.2187 67.7632 40.0827 67.7632 39.928C67.7632 39.7573 67.7046 39.6133 67.5872 39.496C67.4752 39.3733 67.3206 39.2827 67.1232 39.224C66.9312 39.1653 66.7152 39.136 66.4752 39.136C66.2672 39.1413 66.0512 39.1733 65.8272 39.232C65.6086 39.2907 65.3926 39.3787 65.1792 39.496L65.0512 39.176C65.2859 39.048 65.5232 38.952 65.7632 38.888C66.0032 38.824 66.2459 38.7893 66.4912 38.784C66.8006 38.7787 67.0832 38.8213 67.3392 38.912C67.5952 38.9973 67.7979 39.1227 67.9472 39.288C68.0966 39.448 68.1712 39.6427 68.1712 39.872C68.1712 40.08 68.1072 40.2613 67.9792 40.416C67.8566 40.5653 67.6859 40.6827 67.4672 40.768C67.2539 40.8533 67.0139 40.896 66.7472 40.896L66.7792 40.768C67.2592 40.768 67.6299 40.8613 67.8912 41.048C68.1579 41.2347 68.2912 41.4853 68.2912 41.8C68.2912 42.0507 68.2112 42.2693 68.0512 42.456C67.8912 42.6427 67.6752 42.7867 67.4032 42.888C67.1366 42.9893 66.8406 43.04 66.5152 43.04ZM70.0142 43V38.824H70.4142V42.384L73.3902 38.824H73.7422V43H73.3422V39.44L70.3662 43H70.0142ZM75.7873 43V38.824H76.1873V40.728H79.0193V38.824H79.4193V43H79.0193V41.08H76.1873V43H75.7873ZM85.5053 43.032C85.1053 43.032 84.748 42.9413 84.4333 42.76C84.124 42.5787 83.876 42.328 83.6893 42.008C83.508 41.688 83.4173 41.3227 83.4173 40.912C83.4173 40.496 83.508 40.1307 83.6893 39.816C83.876 39.496 84.124 39.2453 84.4333 39.064C84.748 38.8827 85.1053 38.792 85.5053 38.792C85.9053 38.792 86.2627 38.8827 86.5773 39.064C86.892 39.2453 87.14 39.496 87.3213 39.816C87.5027 40.1307 87.5933 40.496 87.5933 40.912C87.5933 41.3227 87.5027 41.688 87.3213 42.008C87.14 42.328 86.892 42.5787 86.5773 42.76C86.2627 42.9413 85.9053 43.032 85.5053 43.032ZM85.5053 42.672C85.8253 42.672 86.1133 42.6 86.3693 42.456C86.6253 42.3067 86.8253 42.0987 86.9693 41.832C87.1133 41.5653 87.1853 41.2587 87.1853 40.912C87.1853 40.56 87.1133 40.2533 86.9693 39.992C86.8253 39.7253 86.6253 39.52 86.3693 39.376C86.1133 39.2267 85.8253 39.152 85.5053 39.152C85.1853 39.152 84.8973 39.2267 84.6413 39.376C84.3907 39.52 84.1907 39.7253 84.0413 39.992C83.8973 40.2533 83.8253 40.56 83.8253 40.912C83.8253 41.2587 83.8973 41.5653 84.0413 41.832C84.1907 42.0987 84.3907 42.3067 84.6413 42.456C84.8973 42.6 85.1853 42.672 85.5053 42.672ZM91.44 43.04C91.44 43.04 91.432 43.04 91.416 43.04C91.4 43.04 91.3867 43.04 91.376 43.04C91.3654 43.04 91.3547 43.04 91.344 43.04C90.5334 43.0347 89.9014 42.8453 89.448 42.472C89 42.0987 88.776 41.576 88.776 40.904C88.776 40.2373 89.0027 39.72 89.456 39.352C89.9147 38.9787 90.5547 38.792 91.376 38.792C91.3814 38.792 91.3894 38.792 91.4 38.792C91.4107 38.792 91.4214 38.792 91.432 38.792C91.4427 38.792 91.4507 38.792 91.456 38.792C92.2774 38.792 92.9174 38.9787 93.376 39.352C93.8347 39.72 94.064 40.2373 94.064 40.904C94.064 41.5813 93.832 42.1067 93.368 42.48C92.9094 42.8533 92.2667 43.04 91.44 43.04ZM91.44 42.68C91.92 42.68 92.3254 42.6107 92.656 42.472C92.9867 42.3333 93.2374 42.1333 93.408 41.872C93.584 41.6053 93.672 41.2827 93.672 40.904C93.672 40.5307 93.584 40.2133 93.408 39.952C93.2374 39.6907 92.9867 39.4933 92.656 39.36C92.3254 39.2213 91.92 39.152 91.44 39.152C91.4294 39.152 91.416 39.152 91.4 39.152C91.3894 39.152 91.3787 39.152 91.368 39.152C90.8987 39.152 90.4987 39.2213 90.168 39.36C89.8427 39.4987 89.5947 39.6987 89.424 39.96C89.2587 40.2213 89.176 40.536 89.176 40.904C89.176 41.2773 89.2614 41.5973 89.432 41.864C89.6027 42.1253 89.8507 42.3253 90.176 42.464C90.5067 42.6027 90.9067 42.6747 91.376 42.68C91.3814 42.68 91.3894 42.68 91.4 42.68C91.416 42.68 91.4294 42.68 91.44 42.68ZM91.224 44.552V37.064H91.616V44.552H91.224ZM95.6767 43V38.824H96.0767V42.384L99.0527 38.824H99.4047V43H99.0047V39.44L96.0287 43H95.6767ZM103.138 43.032C102.732 43.032 102.37 42.9413 102.05 42.76C101.735 42.5787 101.484 42.328 101.298 42.008C101.116 41.688 101.026 41.3227 101.026 40.912C101.026 40.496 101.116 40.128 101.298 39.808C101.484 39.488 101.735 39.24 102.05 39.064C102.37 38.8827 102.732 38.792 103.138 38.792C103.474 38.792 103.778 38.856 104.05 38.984C104.327 39.112 104.551 39.304 104.722 39.56L104.426 39.776C104.276 39.5627 104.09 39.4053 103.866 39.304C103.642 39.2027 103.399 39.152 103.138 39.152C102.812 39.152 102.519 39.2267 102.258 39.376C102.002 39.52 101.799 39.7253 101.65 39.992C101.506 40.2533 101.434 40.56 101.434 40.912C101.434 41.264 101.506 41.5733 101.65 41.84C101.799 42.1013 102.002 42.3067 102.258 42.456C102.519 42.6 102.812 42.672 103.138 42.672C103.399 42.672 103.642 42.6213 103.866 42.52C104.09 42.4187 104.276 42.2613 104.426 42.048L104.722 42.264C104.551 42.52 104.327 42.712 104.05 42.84C103.778 42.968 103.474 43.032 103.138 43.032ZM106.223 43V38.824H106.623V40.728H109.455V38.824H109.855V43H109.455V41.08H106.623V43H106.223ZM113.566 43.032C113.166 43.032 112.809 42.9413 112.494 42.76C112.185 42.5787 111.937 42.328 111.75 42.008C111.569 41.688 111.478 41.3227 111.478 40.912C111.478 40.496 111.569 40.1307 111.75 39.816C111.937 39.496 112.185 39.2453 112.494 39.064C112.809 38.8827 113.166 38.792 113.566 38.792C113.966 38.792 114.324 38.8827 114.638 39.064C114.953 39.2453 115.201 39.496 115.382 39.816C115.564 40.1307 115.654 40.496 115.654 40.912C115.654 41.3227 115.564 41.688 115.382 42.008C115.201 42.328 114.953 42.5787 114.638 42.76C114.324 42.9413 113.966 43.032 113.566 43.032ZM113.566 42.672C113.886 42.672 114.174 42.6 114.43 42.456C114.686 42.3067 114.886 42.0987 115.03 41.832C115.174 41.5653 115.246 41.2587 115.246 40.912C115.246 40.56 115.174 40.2533 115.03 39.992C114.886 39.7253 114.686 39.52 114.43 39.376C114.174 39.2267 113.886 39.152 113.566 39.152C113.246 39.152 112.958 39.2267 112.702 39.376C112.452 39.52 112.252 39.7253 112.102 39.992C111.958 40.2533 111.886 40.56 111.886 40.912C111.886 41.2587 111.958 41.5653 112.102 41.832C112.252 42.0987 112.452 42.3067 112.702 42.456C112.958 42.6 113.246 42.672 113.566 42.672ZM117.277 43V38.824H117.677V42.384L120.653 38.824H121.005V43H120.605V39.44L117.629 43H117.277ZM119.125 38.184C118.8 38.184 118.53 38.0987 118.317 37.928C118.109 37.752 118 37.5093 117.989 37.2H118.285C118.296 37.4187 118.378 37.592 118.533 37.72C118.693 37.848 118.89 37.912 119.125 37.912C119.36 37.912 119.554 37.848 119.709 37.72C119.869 37.592 119.952 37.4187 119.957 37.2H120.261C120.256 37.5093 120.146 37.752 119.933 37.928C119.725 38.0987 119.456 38.184 119.125 38.184ZM125.425 43V38.824H125.817L127.793 42.128H127.617L129.601 38.824H129.969V43H129.601V39.304L129.681 39.336L127.785 42.464H127.601L125.697 39.312L125.793 39.296V43H125.425ZM133.746 43.032C133.325 43.032 132.952 42.9413 132.626 42.76C132.306 42.5787 132.053 42.328 131.866 42.008C131.685 41.688 131.594 41.3227 131.594 40.912C131.594 40.496 131.68 40.1307 131.85 39.816C132.026 39.496 132.266 39.2453 132.57 39.064C132.874 38.8827 133.216 38.792 133.594 38.792C133.973 38.792 134.312 38.88 134.61 39.056C134.914 39.232 135.152 39.48 135.322 39.8C135.498 40.1147 135.586 40.48 135.586 40.896C135.586 40.912 135.584 40.9307 135.578 40.952C135.578 40.968 135.578 40.9867 135.578 41.008H131.89V40.696H135.362L135.202 40.848C135.208 40.5227 135.138 40.232 134.994 39.976C134.856 39.7147 134.666 39.512 134.426 39.368C134.186 39.2187 133.909 39.144 133.594 39.144C133.285 39.144 133.008 39.2187 132.762 39.368C132.522 39.512 132.333 39.7147 132.194 39.976C132.056 40.232 131.986 40.5253 131.986 40.856V40.928C131.986 41.2693 132.061 41.5733 132.21 41.84C132.365 42.1013 132.576 42.3067 132.842 42.456C133.109 42.6 133.413 42.672 133.754 42.672C134.021 42.672 134.269 42.624 134.498 42.528C134.733 42.432 134.93 42.2853 135.09 42.088L135.322 42.352C135.141 42.576 134.912 42.7467 134.634 42.864C134.362 42.976 134.066 43.032 133.746 43.032ZM139.037 43.04C138.701 43.04 138.403 42.9813 138.141 42.864C137.885 42.7467 137.667 42.5733 137.485 42.344C137.309 42.1147 137.173 41.832 137.077 41.496C136.981 41.1547 136.933 40.7627 136.933 40.32C136.933 39.888 136.976 39.5173 137.061 39.208C137.147 38.8933 137.259 38.6293 137.397 38.416C137.541 38.1973 137.704 38.0187 137.885 37.88C138.067 37.7413 138.253 37.632 138.445 37.552C138.643 37.4667 138.837 37.4027 139.029 37.36L140.877 36.92L140.941 37.296L139.181 37.704C139.059 37.736 138.915 37.7787 138.749 37.832C138.589 37.88 138.424 37.9573 138.253 38.064C138.088 38.1653 137.933 38.3093 137.789 38.496C137.651 38.6773 137.536 38.912 137.445 39.2C137.36 39.488 137.317 39.8453 137.317 40.272C137.317 40.352 137.32 40.416 137.325 40.464C137.331 40.512 137.336 40.5653 137.341 40.624C137.352 40.6773 137.363 40.7573 137.373 40.864L137.189 40.768C137.221 40.416 137.325 40.1067 137.501 39.84C137.677 39.5733 137.907 39.3653 138.189 39.216C138.472 39.0667 138.792 38.992 139.149 38.992C139.539 38.992 139.883 39.0773 140.181 39.248C140.485 39.4133 140.723 39.648 140.893 39.952C141.064 40.2507 141.149 40.5973 141.149 40.992C141.149 41.3867 141.061 41.7387 140.885 42.048C140.715 42.3573 140.469 42.6 140.149 42.776C139.835 42.952 139.464 43.04 139.037 43.04ZM139.101 42.696C139.421 42.696 139.704 42.624 139.949 42.48C140.2 42.3307 140.395 42.128 140.533 41.872C140.672 41.616 140.741 41.3253 140.741 41C140.741 40.6747 140.672 40.3893 140.533 40.144C140.395 39.8987 140.2 39.7067 139.949 39.568C139.704 39.424 139.419 39.352 139.093 39.352C138.773 39.352 138.488 39.4213 138.237 39.56C137.992 39.6987 137.8 39.8907 137.661 40.136C137.523 40.3813 137.453 40.6667 137.453 40.992C137.453 41.3173 137.523 41.608 137.661 41.864C137.805 42.12 138 42.3227 138.245 42.472C138.496 42.6213 138.781 42.696 139.101 42.696ZM144.511 43.032C144.09 43.032 143.717 42.9413 143.391 42.76C143.071 42.5787 142.818 42.328 142.631 42.008C142.45 41.688 142.359 41.3227 142.359 40.912C142.359 40.496 142.445 40.1307 142.615 39.816C142.791 39.496 143.031 39.2453 143.335 39.064C143.639 38.8827 143.981 38.792 144.359 38.792C144.738 38.792 145.077 38.88 145.375 39.056C145.679 39.232 145.917 39.48 146.087 39.8C146.263 40.1147 146.351 40.48 146.351 40.896C146.351 40.912 146.349 40.9307 146.343 40.952C146.343 40.968 146.343 40.9867 146.343 41.008H142.655V40.696H146.127L145.967 40.848C145.973 40.5227 145.903 40.232 145.759 39.976C145.621 39.7147 145.431 39.512 145.191 39.368C144.951 39.2187 144.674 39.144 144.359 39.144C144.05 39.144 143.773 39.2187 143.527 39.368C143.287 39.512 143.098 39.7147 142.959 39.976C142.821 40.232 142.751 40.5253 142.751 40.856V40.928C142.751 41.2693 142.826 41.5733 142.975 41.84C143.13 42.1013 143.341 42.3067 143.607 42.456C143.874 42.6 144.178 42.672 144.519 42.672C144.786 42.672 145.034 42.624 145.263 42.528C145.498 42.432 145.695 42.2853 145.855 42.088L146.087 42.352C145.906 42.576 145.677 42.7467 145.399 42.864C145.127 42.976 144.831 43.032 144.511 43.032ZM147.053 42.984L147.093 42.64C147.125 42.6453 147.157 42.6533 147.189 42.664C147.226 42.6693 147.258 42.672 147.285 42.672C147.466 42.672 147.61 42.6053 147.717 42.472C147.823 42.3333 147.903 42.1493 147.957 41.92C148.015 41.6907 148.055 41.432 148.077 41.144C148.103 40.856 148.125 40.5627 148.141 40.264L148.213 38.824H151.141V43H150.741V39.056L150.853 39.184H148.469L148.573 39.048L148.509 40.296C148.487 40.6587 148.458 41.0053 148.421 41.336C148.383 41.6667 148.327 41.96 148.253 42.216C148.178 42.472 148.071 42.6747 147.933 42.824C147.794 42.968 147.615 43.04 147.397 43.04C147.343 43.04 147.287 43.0347 147.229 43.024C147.175 43.0133 147.117 43 147.053 42.984ZM153.189 43V38.824H153.589V42.384L156.565 38.824H156.917V43H156.517V39.44L153.541 43H153.189Z" fill="black"/>
<path d="M5.60109 35C5.35442 35 5.13242 34.9137 4.93509 34.741C4.76242 34.5683 4.67609 34.3463 4.67609 34.075V10.025C4.67609 9.75367 4.76242 9.53167 4.93509 9.359C5.13242 9.18633 5.35442 9.1 5.60109 9.1H9.59709C9.99176 9.1 10.2878 9.211 10.4851 9.433C10.7071 9.63033 10.8428 9.79067 10.8921 9.914L17.4041 21.606L23.9161 9.914C23.9901 9.79067 24.1134 9.63033 24.2861 9.433C24.4834 9.211 24.7918 9.1 25.2111 9.1H29.1701C29.4414 9.1 29.6634 9.18633 29.8361 9.359C30.0334 9.53167 30.1321 9.75367 30.1321 10.025V34.075C30.1321 34.3463 30.0334 34.5683 29.8361 34.741C29.6634 34.9137 29.4414 35 29.1701 35H24.7671C24.4958 35 24.2614 34.9137 24.0641 34.741C23.8914 34.5683 23.8051 34.3463 23.8051 34.075V20.2L19.6241 27.933C19.5254 28.155 19.3774 28.3523 19.1801 28.525C18.9828 28.6977 18.7114 28.784 18.3661 28.784H16.4421C16.0968 28.784 15.8254 28.6977 15.6281 28.525C15.4308 28.3523 15.2704 28.155 15.1471 27.933L10.9661 20.2V34.075C10.9661 34.3463 10.8798 34.5683 10.7071 34.741C10.5344 34.9137 10.3124 35 10.0411 35H5.60109ZM43.0136 35.37C40.1029 35.37 37.7842 34.5807 36.0576 33.002C34.3309 31.4233 33.4306 29.08 33.3566 25.972C33.3566 25.7993 33.3566 25.5773 33.3566 25.306C33.3566 25.0347 33.3566 24.825 33.3566 24.677C33.4306 22.7283 33.8622 21.0633 34.6516 19.682C35.4656 18.276 36.5756 17.2153 37.9816 16.5C39.4122 15.76 41.0772 15.39 42.9766 15.39C45.1472 15.39 46.9356 15.8217 48.3416 16.685C49.7723 17.5483 50.8453 18.72 51.5606 20.2C52.2759 21.68 52.6336 23.3697 52.6336 25.269V26.157C52.6336 26.4283 52.5349 26.6503 52.3376 26.823C52.1649 26.9957 51.9553 27.082 51.7086 27.082H39.8686C39.8686 27.1067 39.8686 27.1437 39.8686 27.193C39.8686 27.2423 39.8686 27.2917 39.8686 27.341C39.8932 28.0563 40.0166 28.71 40.2386 29.302C40.4606 29.894 40.8059 30.3627 41.2746 30.708C41.7432 31.0533 42.3106 31.226 42.9766 31.226C43.4699 31.226 43.8769 31.152 44.1976 31.004C44.5429 30.8313 44.8266 30.6463 45.0486 30.449C45.2706 30.227 45.4432 30.042 45.5666 29.894C45.7886 29.6473 45.9612 29.4993 46.0846 29.45C46.2326 29.376 46.4546 29.339 46.7506 29.339H51.3386C51.5853 29.339 51.7826 29.413 51.9306 29.561C52.1033 29.6843 52.1773 29.8693 52.1526 30.116C52.1279 30.5353 51.9183 31.041 51.5236 31.633C51.1289 32.225 50.5492 32.817 49.7846 33.409C49.0446 33.9763 48.1072 34.445 46.9726 34.815C45.8379 35.185 44.5182 35.37 43.0136 35.37ZM39.8686 23.419H46.1216V23.345C46.1216 22.5557 45.9982 21.865 45.7516 21.273C45.5296 20.681 45.1719 20.2247 44.6786 19.904C44.2099 19.5833 43.6426 19.423 42.9766 19.423C42.3106 19.423 41.7432 19.5833 41.2746 19.904C40.8306 20.2247 40.4852 20.681 40.2386 21.273C39.9919 21.865 39.8686 22.5557 39.8686 23.345V23.419ZM67.1283 35.37C65.747 35.37 64.5877 35.1357 63.6503 34.667C62.7377 34.1983 61.9853 33.6063 61.3933 32.891V34.075C61.3933 34.3463 61.2947 34.5683 61.0973 34.741C60.9247 34.9137 60.715 35 60.4683 35H56.2873C56.016 35 55.794 34.9137 55.6213 34.741C55.4487 34.5683 55.3623 34.3463 55.3623 34.075V9.655C55.3623 9.38366 55.4487 9.16167 55.6213 8.989C55.794 8.81633 56.016 8.73 56.2873 8.73H60.8013C61.0727 8.73 61.2947 8.81633 61.4673 8.989C61.64 9.16167 61.7263 9.38366 61.7263 9.655V17.573C62.3183 16.9317 63.0583 16.4137 63.9463 16.019C64.859 15.5997 65.9197 15.39 67.1283 15.39C68.3617 15.39 69.447 15.5997 70.3843 16.019C71.3463 16.4137 72.1603 16.9933 72.8263 17.758C73.4923 18.5227 74.0103 19.4353 74.3803 20.496C74.7503 21.5567 74.96 22.753 75.0093 24.085C75.034 24.5537 75.0463 24.9853 75.0463 25.38C75.0463 25.75 75.034 26.1817 75.0093 26.675C74.96 28.0563 74.738 29.2897 74.3433 30.375C73.9733 31.4357 73.4553 32.3483 72.7893 33.113C72.1233 33.853 71.3217 34.4203 70.3843 34.815C69.447 35.185 68.3617 35.37 67.1283 35.37ZM65.1303 30.412C65.969 30.412 66.6227 30.2393 67.0913 29.894C67.56 29.5487 67.893 29.08 68.0903 28.488C68.3123 27.896 68.448 27.2423 68.4973 26.527C68.5467 25.7623 68.5467 24.9977 68.4973 24.233C68.448 23.5177 68.3123 22.864 68.0903 22.272C67.893 21.68 67.56 21.2113 67.0913 20.866C66.6227 20.5207 65.969 20.348 65.1303 20.348C64.3657 20.348 63.7367 20.5207 63.2433 20.866C62.75 21.1867 62.38 21.6183 62.1333 22.161C61.8867 22.679 61.751 23.2463 61.7263 23.863C61.7017 24.3317 61.6893 24.788 61.6893 25.232C61.6893 25.676 61.7017 26.1447 61.7263 26.638C61.751 27.304 61.8743 27.9207 62.0963 28.488C62.3183 29.0553 62.676 29.524 63.1693 29.894C63.6627 30.2393 64.3163 30.412 65.1303 30.412ZM86.8441 35.37C83.9335 35.37 81.6148 34.5807 79.8881 33.002C78.1615 31.4233 77.2611 29.08 77.1871 25.972C77.1871 25.7993 77.1871 25.5773 77.1871 25.306C77.1871 25.0347 77.1871 24.825 77.1871 24.677C77.2611 22.7283 77.6928 21.0633 78.4821 19.682C79.2961 18.276 80.4061 17.2153 81.8121 16.5C83.2428 15.76 84.9078 15.39 86.8071 15.39C88.9778 15.39 90.7661 15.8217 92.1721 16.685C93.6028 17.5483 94.6758 18.72 95.3911 20.2C96.1065 21.68 96.4641 23.3697 96.4641 25.269V26.157C96.4641 26.4283 96.3655 26.6503 96.1681 26.823C95.9955 26.9957 95.7858 27.082 95.5391 27.082H83.6991C83.6991 27.1067 83.6991 27.1437 83.6991 27.193C83.6991 27.2423 83.6991 27.2917 83.6991 27.341C83.7238 28.0563 83.8471 28.71 84.0691 29.302C84.2911 29.894 84.6365 30.3627 85.1051 30.708C85.5738 31.0533 86.1411 31.226 86.8071 31.226C87.3005 31.226 87.7075 31.152 88.0281 31.004C88.3735 30.8313 88.6571 30.6463 88.8791 30.449C89.1011 30.227 89.2738 30.042 89.3971 29.894C89.6191 29.6473 89.7918 29.4993 89.9151 29.45C90.0631 29.376 90.2851 29.339 90.5811 29.339H95.1691C95.4158 29.339 95.6131 29.413 95.7611 29.561C95.9338 29.6843 96.0078 29.8693 95.9831 30.116C95.9585 30.5353 95.7488 31.041 95.3541 31.633C94.9595 32.225 94.3798 32.817 93.6151 33.409C92.8751 33.9763 91.9378 34.445 90.8031 34.815C89.6685 35.185 88.3488 35.37 86.8441 35.37ZM83.6991 23.419H89.9521V23.345C89.9521 22.5557 89.8288 21.865 89.5821 21.273C89.3601 20.681 89.0025 20.2247 88.5091 19.904C88.0405 19.5833 87.4731 19.423 86.8071 19.423C86.1411 19.423 85.5738 19.5833 85.1051 19.904C84.6611 20.2247 84.3158 20.681 84.0691 21.273C83.8225 21.865 83.6991 22.5557 83.6991 23.345V23.419ZM100.118 35C99.8465 35 99.6245 34.9137 99.4519 34.741C99.2792 34.5683 99.1929 34.3463 99.1929 34.075V9.655C99.1929 9.38366 99.2792 9.16167 99.4519 8.989C99.6245 8.81633 99.8465 8.73 100.118 8.73H104.484C104.755 8.73 104.977 8.81633 105.15 8.989C105.323 9.16167 105.409 9.38366 105.409 9.655V34.075C105.409 34.3463 105.323 34.5683 105.15 34.741C104.977 34.9137 104.755 35 104.484 35H100.118Z" fill="black"/>
<path d="M109.78 35C109.508 35 109.286 34.9137 109.114 34.741C108.941 34.5683 108.855 34.3463 108.855 34.075V29.376C108.855 29.1293 108.941 28.9197 109.114 28.747C109.286 28.5497 109.508 28.451 109.78 28.451H114.442C114.713 28.451 114.935 28.5497 115.108 28.747C115.305 28.9197 115.404 29.1293 115.404 29.376V34.075C115.404 34.3463 115.305 34.5683 115.108 34.741C114.935 34.9137 114.713 35 114.442 35H109.78ZM119.739 35C119.468 35 119.246 34.9137 119.073 34.741C118.901 34.5683 118.814 34.3463 118.814 34.075V9.655C118.814 9.38366 118.901 9.16167 119.073 8.989C119.246 8.81633 119.468 8.73 119.739 8.73H124.031C124.278 8.73 124.488 8.81633 124.66 8.989C124.858 9.16167 124.956 9.38366 124.956 9.655V22.05L130.099 16.389C130.247 16.2163 130.408 16.0683 130.58 15.945C130.753 15.8217 131 15.76 131.32 15.76H136.278C136.5 15.76 136.685 15.8463 136.833 16.019C137.006 16.167 137.092 16.352 137.092 16.574C137.092 16.6727 137.068 16.7837 137.018 16.907C136.969 17.0303 136.895 17.129 136.796 17.203L130.136 24.381L137.721 33.594C137.919 33.7913 138.017 33.9887 138.017 34.186C138.017 34.408 137.931 34.6053 137.758 34.778C137.61 34.926 137.413 35 137.166 35H132.097C131.727 35 131.456 34.9383 131.283 34.815C131.111 34.667 130.95 34.519 130.802 34.371L124.956 27.341V34.075C124.956 34.3463 124.858 34.5683 124.66 34.741C124.488 34.9137 124.278 35 124.031 35H119.739ZM139.83 35C139.583 35 139.361 34.9137 139.164 34.741C138.991 34.5683 138.905 34.3463 138.905 34.075V31.189C138.905 30.9177 138.954 30.6833 139.053 30.486C139.176 30.2887 139.324 30.1037 139.497 29.931L148.155 20.533H140.163C139.892 20.533 139.657 20.4467 139.46 20.274C139.287 20.1013 139.201 19.8793 139.201 19.608V16.685C139.201 16.4137 139.287 16.1917 139.46 16.019C139.657 15.8463 139.892 15.76 140.163 15.76H155.037C155.284 15.76 155.493 15.8463 155.666 16.019C155.863 16.1917 155.962 16.4137 155.962 16.685V19.83C155.962 20.052 155.913 20.2493 155.814 20.422C155.715 20.5947 155.592 20.7673 155.444 20.94L147.008 30.227H155.777C156.048 30.227 156.27 30.3133 156.443 30.486C156.616 30.6587 156.702 30.8807 156.702 31.152V34.075C156.702 34.3463 156.616 34.5683 156.443 34.741C156.27 34.9137 156.048 35 155.777 35H139.83Z" fill="#10C6FF"/>
</svg>
